<svg version="1.0" xmlns="http://www.w3.org/2000/svg" width="300.000000pt" height="121.000000pt" viewBox="0 0 300.000000 121.000000" preserveAspectRatio="xMidYMid meet" style="width: 655.453px; height: auto;"> <g transform="translate(0.000000,121.000000) scale(0.100000,-0.100000)" fill="#000000" stroke="none" class=""> <path d="M490 993 c1 -9 224 -138 234 -135 19 7 1 22 -94 79 -97 57 -140 75 -140 56z"></path> <path d="M378 929 c-38 -19 -50 -39 -25 -39 13 0 87 47 87 55 0 10 -26 3 -62 -16z"></path>  <path d="M212 833 l-63 -35 3 -72 c3 -82 22 -93 25 -13 1 28 2 57 2 63 1 6 23 23 51 38 52 28 66 41 53 49 -5 3 -37 -11 -71 -30z"></path> <path d="M790 822 c0 -5 11 -15 25 -22 14 -7 25 -19 25 -27 0 -7 7 -13 15 -13 16 0 20 18 7 36 -15 24 -72 44 -72 26z"></path> <path d="M230 691 c-15 -29 -13 -243 3 -264 11 -16 38 -18 272 -18 236 0 260 1 272 17 16 22 18 236 3 265 -10 18 -24 19 -275 19 -251 0 -265 -1 -275 -19z m279 -5 c-3 -3 -59 -6 -124 -7 -66 -1 -115 -4 -108 -6 7 -2 9 -11 6 -19 -4 -12 -8 -12 -18 3 -9 12 -10 20 -3 25 13 7 255 11 247 4z m248 -10 c13 -20 14 -56 3 -74 -9 -13 -9 -10 -4 17 5 26 3 32 -6 26 -9 -6 -11 -4 -5 5 6 10 4 12 -8 7 -10 -4 -16 -2 -14 6 1 8 -27 14 -98 18 l-100 6 113 0 c74 1 115 -3 119 -11z m-496 -33 c1 -10 0 -51 -1 -90 -2 -69 0 -73 24 -84 14 -7 23 -16 19 -22 -3 -6 -2 -7 4 -4 6 4 102 7 215 7 181 1 207 3 220 19 8 9 12 23 10 31 -3 10 -1 12 6 5 13 -13 3 -67 -11 -58 -6 4 -8 0 -4 -11 4 -10 3 -15 -3 -11 -6 4 -114 6 -240 5 -160 0 -230 3 -230 10 0 6 -4 9 -10 5 -5 -3 -8 30 -7 85 1 49 0 90 -3 90 -3 0 -6 9 -6 20 0 25 16 27 17 3z m450 -4 c12 -6 16 -24 15 -81 l-1 -73 -217 -3 -218 -2 0 78 c0 43 3 82 7 86 10 10 394 6 414 -5z" class=""></path> <path d="M845 679 c-10 -26 -1 -259 10 -259 14 0 19 250 6 263 -7 7 -12 5 -16 -4z"></path>  <path d="M920 530 l0 -90 170 0 c163 0 170 1 170 20 0 19 -7 20 -155 20 l-155 0 0 70 c0 56 -3 70 -15 70 -12 0 -15 -17 -15 -90z" class=""></path> <path d="M1307 613 c-12 -12 -7 -74 7 -88 8 -9 41 -15 82 -17 l69 -3 3 -32 c5 -47 32 -44 32 2 l0 35 71 0 c83 0 98 11 99 73 0 30 -4 37 -19 37 -15 0 -21 -8 -23 -32 l-3 -33 -70 -5 c-38 -3 -101 -3 -140 0 l-70 5 -3 33 c-3 30 -19 41 -35 25z"></path> <path d="M1717 613 c-4 -3 -7 -44 -7 -90 0 -66 3 -83 15 -83 11 0 15 17 17 73 l3 72 55 0 55 0 3 -72 c3 -65 5 -73 22 -73 18 0 20 7 20 70 0 65 2 70 24 76 13 3 38 4 57 2 l34 -3 3 -72 c2 -56 6 -73 17 -73 12 0 15 18 15 90 l0 90 -163 0 c-90 0 -167 -3 -170 -7z"></path> <path d="M2100 530 c0 -73 3 -90 15 -90 10 0 15 11 15 35 l0 35 149 0 c167 0 174 3 169 67 l-3 38 -172 3 -173 2 0 -90z m315 35 c0 -19 -8 -20 -134 -23 -136 -3 -159 3 -148 33 6 13 26 15 144 13 130 -3 138 -4 138 -23z"></path> <path d="M2490 530 l0 -90 176 0 c162 0 175 1 172 18 -3 15 -19 17 -143 19 -77 1 -146 2 -152 3 -7 0 -13 7 -13 15 0 13 24 15 156 15 143 0 155 1 152 18 -3 15 -20 17 -156 20 -144 2 -152 4 -152 22 0 19 7 20 155 20 131 0 155 2 155 15 0 13 -26 15 -175 15 l-175 0 0 -90z" class=""></path> <path d="M157 584 c-4 -4 -7 -29 -7 -56 0 -63 24 -61 28 2 3 41 -7 68 -21 54z"></path>  <path d="M150 398 c0 -13 209 -138 229 -138 29 0 2 23 -89 74 -54 31 -102 61 -105 66 -9 14 -35 12 -35 -2z"></path> <path d="M719 329 c-112 -65 -144 -89 -119 -89 14 0 215 112 233 130 5 4 5 10 0 13 -6 4 -57 -21 -114 -54z"></path> <path d="M445 230 c-3 -5 9 -19 27 -30 40 -24 42 -24 58 -5 10 12 9 15 -4 15 -9 0 -30 7 -46 15 -18 9 -31 11 -35 5z" class=""></path>  </g> </svg>